<svg width="40" height="40" viewBox="0 0 40 40" fill="none" xmlns="http://www.w3.org/2000/svg">
<path d="M27.43 20.98C27.47 20.66 27.5 20.34 27.5 20C27.5 19.66 27.47 19.34 27.43 19.02L29.54 17.37C29.73 17.22 29.78 16.95 29.66 16.73L27.66 13.27C27.57 13.11 27.4 13.02 27.22 13.02C27.16 13.02 27.1 13.03 27.05 13.05L24.56 14.05C24.04 13.65 23.48 13.32 22.87 13.07L22.49 10.42C22.46 10.18 22.25 10 22 10H18C17.75 10 17.54 10.18 17.51 10.42L17.13 13.07C16.52 13.32 15.96 13.66 15.44 14.05L12.95 13.05C12.89 13.03 12.83 13.02 12.77 13.02C12.6 13.02 12.43 13.11 12.34 13.27L10.34 16.73C10.21 16.95 10.27 17.22 10.46 17.37L12.57 19.02C12.53 19.34 12.5 19.67 12.5 20C12.5 20.33 12.53 20.66 12.57 20.98L10.46 22.63C10.27 22.78 10.22 23.05 10.34 23.27L12.34 26.73C12.43 26.89 12.6 26.98 12.78 26.98C12.84 26.98 12.9 26.97 12.95 26.95L15.44 25.95C15.96 26.35 16.52 26.68 17.13 26.93L17.51 29.58C17.54 29.82 17.75 30 18 30H22C22.25 30 22.46 29.82 22.49 29.58L22.87 26.93C23.48 26.68 24.04 26.34 24.56 25.95L27.05 26.95C27.11 26.97 27.17 26.98 27.23 26.98C27.4 26.98 27.57 26.89 27.66 26.73L29.66 23.27C29.78 23.05 29.73 22.78 29.54 22.63L27.43 20.98ZM25.45 19.27C25.49 19.58 25.5 19.79 25.5 20C25.5 20.21 25.48 20.43 25.45 20.73L25.31 21.86L26.2 22.56L27.28 23.4L26.58 24.61L25.31 24.1L24.27 23.68L23.37 24.36C22.94 24.68 22.53 24.92 22.12 25.09L21.06 25.52L20.9 26.65L20.7 28H19.3L19.11 26.65L18.95 25.52L17.89 25.09C17.46 24.91 17.06 24.68 16.66 24.38L15.75 23.68L14.69 24.11L13.42 24.62L12.72 23.41L13.8 22.57L14.69 21.87L14.55 20.74C14.52 20.43 14.5 20.2 14.5 20C14.5 19.8 14.52 19.57 14.55 19.27L14.69 18.14L13.8 17.44L12.72 16.6L13.42 15.39L14.69 15.9L15.73 16.32L16.63 15.64C17.06 15.32 17.47 15.08 17.88 14.91L18.94 14.48L19.1 13.35L19.3 12H20.69L20.88 13.35L21.04 14.48L22.1 14.91C22.53 15.09 22.93 15.32 23.33 15.62L24.24 16.32L25.3 15.89L26.57 15.38L27.27 16.59L26.2 17.44L25.31 18.14L25.45 19.27ZM20 16C17.79 16 16 17.79 16 20C16 22.21 17.79 24 20 24C22.21 24 24 22.21 24 20C24 17.79 22.21 16 20 16ZM20 22C18.9 22 18 21.1 18 20C18 18.9 18.9 18 20 18C21.1 18 22 18.9 22 20C22 21.1 21.1 22 20 22Z" fill="black"/>
<circle cx="20" cy="20" r="19" stroke="black" stroke-width="2"/>
</svg>
